<?xml version="1.0" encoding="UTF-8" standalone="no"?>
<!-- Created with Inkscape (http://www.inkscape.org/) -->

<svg
   xmlns:osb="http://www.openswatchbook.org/uri/2009/osb"
   xmlns:dc="http://purl.org/dc/elements/1.1/"
   xmlns:cc="http://creativecommons.org/ns#"
   xmlns:rdf="http://www.w3.org/1999/02/22-rdf-syntax-ns#"
   xmlns:svg="http://www.w3.org/2000/svg"
   xmlns="http://www.w3.org/2000/svg"
   xmlns:sodipodi="http://sodipodi.sourceforge.net/DTD/sodipodi-0.dtd"
   xmlns:inkscape="http://www.inkscape.org/namespaces/inkscape"
   width="10mm"
   height="10mm"
   viewBox="0 0 10 10"
   version="1.1"
   id="svg8"
   inkscape:version="0.92.3 (2405546, 2018-03-11)"
   sodipodi:docname="logo.xvg.svg">
  <defs
     id="defs2">
    <linearGradient
       inkscape:collect="always"
       id="linearGradient4585"
       osb:paint="gradient">
      <stop
         style="stop-color:#99ff55;stop-opacity:1;"
         offset="0"
         id="stop4581" />
      <stop
         style="stop-color:#99ff55;stop-opacity:0;"
         offset="1"
         id="stop4583" />
    </linearGradient>
  </defs>
  <sodipodi:namedview
     id="base"
     pagecolor="#ffffff"
     bordercolor="#666666"
     borderopacity="1.0"
     inkscape:pageopacity="0.0"
     inkscape:pageshadow="2"
     inkscape:zoom="0.5"
     inkscape:cx="-1216.6178"
     inkscape:cy="839.77296"
     inkscape:document-units="mm"
     inkscape:current-layer="layer1"
     showgrid="false"
     inkscape:window-width="2560"
     inkscape:window-height="1372"
     inkscape:window-x="0"
     inkscape:window-y="0"
     inkscape:window-maximized="1" />
  <metadata
     id="metadata5">
    <rdf:RDF>
      <cc:Work
         rdf:about="">
        <dc:format>image/svg+xml</dc:format>
        <dc:type
           rdf:resource="http://purl.org/dc/dcmitype/StillImage" />
        <dc:title></dc:title>
      </cc:Work>
    </rdf:RDF>
  </metadata>
  <g
     inkscape:label="Ebene 1"
     inkscape:groupmode="layer"
     id="layer1"
     transform="translate(0,-287)">
    <g
       id="g10246">
      <path
         sodipodi:nodetypes="cccscscc"
         inkscape:connector-curvature="0"
         id="path4554"
         d="m -414.07291,118.93542 0.52916,75.40625 h 29.36875 c 0,0 23.51537,-0.79422 23.54792,-21.16667 0.0275,-17.19993 -17.72708,-18.52083 -17.72708,-18.52083 0,0 14.96306,-2.1217 15.08125,-16.66875 0.16344,-20.11713 -24.87084,-19.05 -24.87084,-19.05 z"
         style="fill:#000036;fill-opacity:1;fill-rule:evenodd;stroke:none;stroke-width:0.26458332px;stroke-linecap:butt;stroke-linejoin:miter;stroke-opacity:1" />
      <path
         sodipodi:nodetypes="csccsccc"
         inkscape:connector-curvature="0"
         id="path4556"
         d="m -409.44133,152.27292 c 0,0 0.53872,-1.15497 2.91765,-2.8022 4.63566,-3.20985 2.08763,-16.49244 3.64486,-21.30698 1.6761,-4.3028 20.86022,-2.73937 20.86022,-2.73937 0,0 10.19534,1.79725 9.78175,13.13699 -0.3454,9.46951 -14.7227,9.60113 -14.7227,9.60113 0,0 -10.17935,-1.31352 -16.47874,1.72918 -1.3444,1.05834 -6.00304,2.38125 -6.00304,2.38125 z"
         style="fill:#ff5555;fill-opacity:1;fill-rule:evenodd;stroke:none;stroke-width:0.26672393px;stroke-linecap:butt;stroke-linejoin:miter;stroke-opacity:1" />
      <path
         sodipodi:nodetypes="csccsccc"
         inkscape:connector-curvature="0"
         id="path4556-8"
         d="m -409.21876,156.97201 3.65888,4.17304 c 2.72222,3.10476 0.65916,18.79426 4.32457,23.60656 3.92534,4.52592 20.90479,2.86762 20.90479,2.86762 0,0 10.70389,-2.32926 10.27585,-15.46897 -0.35747,-10.97262 -14.39269,-9.40533 -14.39269,-9.40533 0,0 -12.56579,-0.15262 -18.31615,-3.14599 -1.52369,-0.82946 -6.45525,-2.62693 -6.45525,-2.62693 z"
         style="fill:#ddff55;fill-opacity:1;fill-rule:evenodd;stroke:none;stroke-width:0.29208812px;stroke-linecap:butt;stroke-linejoin:miter;stroke-opacity:1" />
    </g>
  </g>
</svg>
